# xmcd CD database file
#
# Track frame offsets:
#	150
#	12927
#	26178
#	39905
#	52732
#	66542
#	78774
#	92480
#	105710
#	118662
#	131978
#	146189
#	159024
#	171834
#	186097
#	199995
#	212668
#	226096
#	238862
#	252538
#
# Disc length: 3516 seconds
#
# Revision: 0
# Processed by: cddbd v1.4PL0 Copyright (c) Steve Scherf et al.
# Submitted via: CDex 1.50beta9
#
DISCID=150dba14
DTITLE=Earl Hines - Straight Life
DYEAR=1900
DGENRE=Jazz
TTITLE0=Straight Life
TTITLE1=Rosetta
TTITLE2=At the El Grotto
TTITLE3=Not That You're Mine
TTITLE4=Spooks Ball
TTITLE5=Margie
TTITLE6=Let's Get Started
TTITLE7=Ain't Gonna Give None of This Jelly Roll
TTITLE8=Blue Keys
TTITLE9=Oh My Archin' Back
TTITLE10=Throwing the Switch
TTITLE11=Midnight in New Orleans
TTITLE12=Sweet Honey Babe
TTITLE13=When I Dream of You
TTITLE14=Trick Atrack
TTITLE15=Ain't Missbehavin'
TTITLE16=Bamby
TTITLE17=I Need a Shoulder to Cry on
TTITLE18=Black and Blue
TTITLE19=Louise
EXTD=
EXTT0=
EXTT1=
EXTT2=
EXTT3=
EXTT4=
EXTT5=
EXTT6=
EXTT7=
EXTT8=
EXTT9=
EXTT10=
EXTT11=
EXTT12=
EXTT13=
EXTT14=
EXTT15=
EXTT16=
EXTT17=
EXTT18=
EXTT19=
PLAYORDER=
